Coordinates
version=1
nRows=29
nColumns=24
inDegrees=yes

Units are S.I. units (second, meters, Newtons, ...)
Angles are in degrees.

endheader
time	pelvis_tilt	pelvis_list	pelvis_rotation	pelvis_tx	pelvis_ty	pelvis_tz	hip_flexion_r	hip_adduction_r	hip_rotation_r	knee_angle_r	ankle_angle_r	subtalar_angle_r	mtp_angle_r	hip_flexion_l	hip_adduction_l	hip_rotation_l	knee_angle_l	ankle_angle_l	subtalar_angle_l	mtp_angle_l	lumbar_extension	lumbar_bending	lumbar_rotation
      6.55000000	     -1.40665382	     -2.21615081	     -6.21204864	      0.69959488	      0.65661065	     -0.25308601	    -15.50929494	      7.61761613	      2.85908625	     -8.62165584	     20.91784680	     -3.58412631	      0.00000000	     21.93933959	     -1.94743273	     -7.08831760	     -1.37435622	      3.62371160	    -11.05310929	      0.00000000	    -12.97674946	     -1.49933561	      6.36767087
      6.56000000	     -1.65016068	     -1.70085616	     -6.15093745	      0.70967322	      0.65558802	     -0.25358954	    -15.63580380	      6.97035075	      2.84140638	     -9.50890487	     20.52703872	     -3.68077334	      0.00000000	     22.30650210	     -1.25637162	     -6.40112162	     -2.74569293	      1.60908221	    -13.07772990	      0.00000000	    -12.43769561	     -2.10559737	      6.22351484
      6.57000000	     -1.50317625	     -0.96936369	     -5.90330319	      0.71992519	      0.65513442	     -0.25420464	    -16.13849659	      6.10976384	      2.60755693	    -10.40124374	     19.83894059	     -3.84274666	      0.00000000	     22.22814781	     -0.26018024	     -5.26716158	     -4.05928601	     -0.76646651	    -15.13540528	      0.00000000	    -12.35618635	     -3.01009425	      5.80139729
      6.58000000	     -1.52540856	     -0.12619662	     -5.53108190	      0.73021122	      0.65481739	     -0.25485290	    -16.32935877	      5.21280766	      2.30291890	    -11.52102759	     18.91406138	     -4.09606122	      0.00000000	     22.41306404	      0.84303497	     -4.03505372	     -5.52912992	     -2.98949592	    -16.72387156	      0.00000000	    -12.07071149	     -4.02932599	      5.24060138
      6.59000000	     -1.34927274	      0.87081477	     -5.03664727	      0.74059608	      0.65496143	     -0.25554672	    -16.60810966	      4.19593366	      1.88950511	    -12.85205946	     17.75375463	     -4.41107511	      0.00000000	     22.44105685	      2.13448598	     -3.00993259	     -7.15207133	     -4.49628243	    -17.56148573	      0.00000000	    -12.02854556	     -5.24546913	      4.52708711
      6.60000000	     -1.28835444	      1.89654188	     -4.51850536	      0.75106430	      0.65528953	     -0.25618366	    -16.60653756	      3.17703598	      1.34782601	    -14.47054566	     16.32305450	     -4.54177994	      0.00000000	     22.66163112	      3.40445667	     -2.50745188	     -9.02021370	     -5.07769282	    -17.57149403	      0.00000000	    -11.83146112	     -6.51860317	      3.90659819
      6.61000000	     -1.17146022	      2.87463197	     -3.96640262	      0.76155683	      0.65589567	     -0.25684835	    -16.46199746	      2.22307902	      0.77617007	    -16.45439648	     14.55633572	     -4.83839927	      0.00000000	     22.65876980	      4.65605019	     -1.93744482	    -10.70908784	     -5.17609157	    -17.73282224	      0.00000000	    -11.72676524	     -7.73325578	      3.19677725
      6.62000000	     -1.04336071	      3.71877051	     -3.46484380	      0.77202369	      0.65674084	     -0.25747502	    -16.16405331	      1.41353168	      0.40789483	    -18.67419455	     12.11406373	     -5.55155533	      0.00000000	     22.47428271	      5.74873997	     -1.58933450	    -12.20697244	     -4.73387803	    -17.90371939	      0.00000000	    -11.65459337	     -8.80467733	      2.66523508
      6.63000000	     -0.97538085	      4.52368042	     -3.09643214	      0.78239322	      0.65776397	     -0.25809497	    -15.46714784	      0.54306208	     -0.14624774	    -21.39469836	      9.58314558	     -5.67821126	      0.00000000	     22.08485124	      6.75349897	     -1.44196220	    -13.26572054	     -4.05374744	    -17.97623534	      0.00000000	    -11.51644846	     -9.83196576	      2.33069637
      6.64000000	     -0.96051222	      5.08807829	     -2.90654339	      0.79248849	      0.65895428	     -0.25854661	    -14.48424432	     -0.07981519	     -0.17368453	    -24.31774172	      6.00573872	     -6.72263686	      0.00000000	     21.59612738	      7.40611231	     -1.73459958	    -14.08811081	     -2.77620827	    -17.47423855	      0.00000000	    -11.35935772	    -10.59382765	      2.22294796
      6.65000000	     -0.95298668	      5.61271476	     -2.87250539	      0.80231500	      0.66031091	     -0.25896849	    -13.12742895	     -0.76797873	     -0.26706788	    -27.69160306	      2.30385003	     -7.28677573	      0.00000000	     20.85616467	      7.97532070	     -2.13811984	    -14.40252385	     -1.53109181	    -16.81729161	      0.00000000	    -11.21479721	    -11.30575372	      2.28240734
      6.66000000	     -0.97034059	      6.05411254	     -2.98357098	      0.81177831	      0.66175533	     -0.25931685	    -11.41932749	     -1.42909878	     -0.23778790	    -31.39746503	     -1.59922351	     -7.81440282	      0.00000000	     19.96352964	      8.42058741	     -2.64729207	    -14.33376499	     -0.33986777	    -16.03568390	      0.00000000	    -11.09174316	    -11.91505111	      2.44815950
      6.67000000	     -1.01030486	      6.43323111	     -3.21637025	      0.82084125	      0.66319871	     -0.25958759	     -9.37446011	     -2.07135516	     -0.13479703	    -35.40333874	     -5.42572252	     -8.34530762	      0.00000000	     19.00008989	      8.77020636	     -3.29814283	    -14.01518381	      0.78203240	    -15.15355475	      0.00000000	    -10.99971343	    -12.43708792	      2.66278329
      6.68000000	     -1.07621830	      6.77328287	     -3.54796158	      0.82952453	      0.66457225	     -0.25977497	     -7.04446936	     -2.68173927	      0.06743068	    -39.60826932	     -8.89198611	     -8.94635743	      0.00000000	     18.01331364	      9.06427158	     -4.02518529	    -13.52383705	      1.80876041	    -14.20612639	      0.00000000	    -10.92376511	    -12.89666660	      2.83345934
      6.69000000	     -1.14079880	      7.07497539	     -3.93029413	      0.83784404	      0.66584164	     -0.25990865	     -4.52966368	     -3.23713750	      0.30716820	    -43.87934659	    -11.77354601	     -9.82269351	      0.00000000	     17.02670551	      9.32582402	     -4.73302354	    -12.96609126	      2.77343636	    -13.21133189	      0.00000000	    -10.89965424	    -13.28777685	      2.94833674
      6.70000000	     -1.17712528	      7.31510454	     -4.31460037	      0.84587277	      0.66702342	     -0.25999456	     -1.96061884	     -3.66939657	      0.58114984	    -48.03479472	    -13.93259730	    -11.22107753	      0.00000000	     16.04091653	      9.54198655	     -5.35279342	    -12.43311094	      3.88074366	    -12.03723495	      0.00000000	    -10.95399054	    -13.58266189	      2.95822845
      6.71000000	     -1.15446474	      7.51580289	     -4.69291105	      0.85363841	      0.66815605	     -0.26008162	      0.58238179	     -4.01714425	      0.83919056	    -51.96590543	    -15.33602945	    -13.02985704	      0.00000000	     15.04264531	      9.76190227	     -5.81740411	    -11.92819129	      4.58685369	    -11.45977562	      0.00000000	    -11.12789823	    -13.80501500	      2.82487245
      6.72000000	     -1.07370209	      7.60305170	     -4.99543053	      0.86122980	      0.66929702	     -0.26018266	      2.99970553	     -4.16495199	      1.07041626	    -55.51015113	    -15.92940222	    -15.41742890	      0.00000000	     14.00649338	      9.91600988	     -5.99293216	    -11.47009307	      5.23546715	    -11.00155077	      0.00000000	    -11.41049972	    -13.87053685	      2.54325957
      6.73000000	     -0.91698457	      7.63245407	     -5.23210870	      0.86871247	      0.67047749	     -0.26032965	      5.26623100	     -4.20794102	      1.25574577	    -58.64036141	    -15.71595196	    -17.88362612	      0.00000000	     12.89213018	     10.07030080	     -5.85502142	    -11.01517711	      5.84111300	    -10.83225366	      0.00000000	    -11.81103780	    -13.85275999	      2.09559368
      6.74000000	     -0.75952342	      7.38578781	     -5.37237894	      0.87604135	      0.67170692	     -0.26049278	      7.39386689	     -3.87462299	      1.39499217	    -61.23591324	    -14.97974856	    -20.69658270	      0.00000000	     11.82775598	      9.96240864	     -5.52488702	    -10.70570620	      6.33008424	    -10.88520742	      0.00000000	    -12.26386217	    -13.48578754	      1.65848061
      6.75000000	     -0.54034920	      7.07788955	     -5.45234622	      0.88333451	      0.67298473	     -0.26070337	      9.37074435	     -3.46920756	      1.47393319	    -63.38397027	    -13.46447429	    -22.88564044	      0.00000000	     10.67914119	      9.82724308	     -5.01111910	    -10.37588349	      6.88884202	    -11.05228032	      0.00000000	    -12.79825370	    -13.03838089	      1.12799538
      6.76000000	     -0.34813437	      6.63121906	     -5.46470511	      0.89054567	      0.67426246	     -0.26090555	     11.27076896	     -2.88207229	      1.50980581	    -65.04428179	    -11.66477974	    -24.70443888	      0.00000000	      9.57305822	      9.54431274	     -4.48064220	    -10.08392942	      7.31614904	    -11.29883303	      0.00000000	    -13.32592854	    -12.43545805	      0.62562795
      6.77000000	     -0.18367239	      6.11182334	     -5.40564371	      0.89773743	      0.67549775	     -0.26115132	     13.10233105	     -2.22497803	      1.47988460	    -66.25175062	     -9.68111136	    -25.85965846	      0.00000000	      8.48575276	      9.18716319	     -3.89980411	     -9.78229330	      7.71687036	    -11.59071175	      0.00000000	    -13.81968106	    -11.72665600	      0.10910781
      6.78000000	     -0.01866423	      5.63559479	     -5.29774731	      0.90490546	      0.67665537	     -0.26140437	     14.87428711	     -1.65655229	      1.38367343	    -67.09463826	     -7.18111905	    -25.84475002	      0.00000000	      7.39570006	      8.86570535	     -3.35177762	     -9.44346742	      7.91989555	    -11.94240343	      0.00000000	    -14.32027811	    -11.08956389	     -0.38838398
      6.79000000	      0.07674807	      5.13240121	     -5.15362158	      0.91206802	      0.67766423	     -0.26163140	     16.61805467	     -1.07211956	      1.26216737	    -67.51987796	     -4.94688996	    -25.36712390	      0.00000000	      6.42143098	      8.47668352	     -2.98259621	     -9.18602588	      8.37723875	    -11.99440423	      0.00000000	    -14.72420180	    -10.42285668	     -0.84649574
      6.80000000	      0.13960459	      4.65693588	     -4.96402829	      0.91924970	      0.67852167	     -0.26184366	     18.29294195	     -0.56606938	      1.07800898	    -67.55469398	     -2.84341155	    -24.37341294	      0.00000000	      5.52041637	      8.08350963	     -2.77102646	     -8.98955158	      8.93670726	    -11.78223137	      0.00000000	    -15.07637144	     -9.79933510	     -1.28499765
      6.81000000	      0.17578024	      4.21831357	     -4.72533779	      0.92644245	      0.67921056	     -0.26203586	     19.88202667	     -0.14917607	      0.83570556	    -67.20275439	     -0.95454456	    -23.12019880	      0.00000000	      4.70014829	      7.70238016	     -2.63896700	     -8.88373818	      9.57083957	    -11.39374184	      0.00000000	    -15.39583132	     -9.23083373	     -1.71929577
      6.82000000	      0.19599952	      3.82452037	     -4.46342751	      0.93366037	      0.67971266	     -0.26220134	     21.36948917	      0.17167608	      0.55578739	    -66.47484221	      0.71683048	    -21.78881881	      0.00000000	      3.95351429	      7.34886449	     -2.55118633	     -8.88014157	     10.30278288	    -10.92491247	      0.00000000	    -15.68295599	     -8.72556216	     -2.11537510
      6.83000000	      0.21730102	      3.46954977	     -4.16406096	      0.94090028	      0.68003953	     -0.26235050	     22.72506543	      0.39915779	      0.22330716	    -65.37155497	      2.16563101	    -20.57331118	      0.00000000	      3.25845131	      7.02676492	     -2.41968344	     -8.97384939	     11.06842736	    -10.46119511	      0.00000000	    -15.96869139	     -8.27524752	     -2.50657359
